<?xml version="1.0" encoding="UTF-8"?>
<svg id="Layer_1" data-name="Layer 1" xmlns="http://www.w3.org/2000/svg" version="1.1" xmlns:xlink="http://www.w3.org/1999/xlink" viewBox="0 0 116 32">
  <defs>
    <clipPath id="clip0">
      <rect x="387" y="207" width="116" height="32"/>
    </clipPath>
    <style>
      .cls-1 {
        fill: url(#_Безымянный_градиент_2);
      }

      .cls-1, .cls-2 {
        stroke-width: 0px;
      }

      .cls-2 {
        fill: #fff;
      }
    </style>
    <linearGradient id="_Безымянный_градиент_2" x1="88.3" y1="26.5" x2="88.3" y2="9.5" gradientTransform="translate(0 34) scale(1 -1)" gradientUnits="userSpaceOnUse">
      <stop offset="0" stop-color="#f48f41"/>
      <stop offset="1" stop-color="#f05e2d"/>
    </linearGradient>

  </defs>
  <path class="cls-2" d="M17.2,16.1c0-5.4,2.7-8.6,8.1-8.6s8,3.2,8,8.4-2.7,8.6-8.2,8.6-7.9-3.2-7.9-8.3ZM28.3,15.9c0-2.8-1-4.3-3-4.3s-3.1,1.6-3.1,4.3,1.1,4.4,3.1,4.4,3-1.5,3-4.4Z"/>
  <path class="cls-2" d="M35,7.8h6.6c6.6,0,8.3,3.6,8.3,8.2s-1.8,8.2-8.3,8.2h-6.6V7.8ZM42.2,20.2c2,0,2.8-1.7,2.8-4.2s-.8-4.2-2.8-4.2h-2.2v8.4h2.2Z"/>
  <path class="cls-2" d="M65.4,24.1c-1.2-1.1-2.1-2.5-2.6-4.1h-6.1v-2.1h5.7c0-.6-.1-1.2-.1-1.8,0-.7,0-1.4.1-2.1h-5.7v-2.1h6.2c.4-1.3,1.2-2.5,2.1-3.5.2-.2.4-.4.6-.6h-13.9v16.4h13.7,0Z"/>
  <path class="cls-1" d="M83,24.2v-5.5l-5.6-10.9h5.3l2.8,6.5,2.7-6.5h5.3l-5.6,10.8v5.6h-4.8ZM107.6,24.2l-.2-9.6-2.7,6.5h-3.3l-2.7-6.4-.2,9.6h-4.8l.7-16.4h5.5l3.1,7.5,3.1-7.5h5.6l.7,16.4h-4.7ZM73.6,20.2h-.4c-2,0-3.9-.8-3.9-4.1s1.9-4.3,4.3-4.3c1.3,0,2.7.2,4,.5l-1.9-3.5-.6-1.2c-.7,0-1.5,0-2.2,0-5.4,0-8.5,3.3-8.5,8.6s3.5,8.4,8.6,8.4c1.9,0,3.7-.3,5.5-.8v-6.5h-4.8v3Z"/>
  <path class="cls-2" d="M15.5,19.9c-.9.1-1.8.2-2.7.3-2.3,0-4.2-.8-4.2-4.1s2-4.1,4.2-4.1c.9,0,1.8,0,2.7.2.4-1.4,1.1-2.7,2.1-3.8-1.1-.3-2.1-.5-3.2-.7,0,0-1.2-.1-1.8-.1h-1.5c-4.4.3-7.5,2.7-7.5,8.3v.2c0,5.6,3.1,8,7.5,8.3h1.4c.6,0,1.8-.1,1.8-.1,1.1-.1,2.1-.3,3.2-.6-1-1.1-1.7-2.4-2.1-3.8Z"/>
</svg>